<svg id="svg" xmlns="http://www.w3.org/2000/svg" xmlns:xlink="http://www.w3.org/1999/xlink" width="400" height="225.35211267605635" viewBox="0, 0, 400,225.35211267605635"><g id="svgg"><path id="path0" d="M217.931 9.128 C 217.137 9.921,216.901 10.479,216.901 11.561 C 216.901 14.214,221.201 30.052,225.406 42.889 L 227.864 50.391 226.620 51.767 C 214.408 65.285,223.070 120.285,242.487 152.524 L 244.962 156.633 239.805 156.435 C 233.933 156.209,230.063 156.640,226.099 157.962 C 224.669 158.439,223.467 158.783,223.427 158.728 C 223.387 158.672,223.164 155.072,222.930 150.728 C 221.213 118.821,215.855 90.815,207.225 68.654 C 201.962 55.139,197.108 50.506,191.311 53.463 C 184.976 56.695,183.241 65.893,185.063 86.586 C 185.343 89.763,185.512 92.423,185.438 92.497 C 185.363 92.571,184.239 91.131,182.939 89.297 C 179.632 84.631,174.025 77.713,169.400 72.592 C 165.180 67.919,165.096 67.773,162.991 61.496 L 161.592 57.323 162.310 55.839 C 163.822 52.715,161.741 49.648,158.110 49.648 C 154.999 49.648,153.515 52.532,154.605 56.459 C 155.132 58.355,154.970 58.343,152.429 56.294 C 144.513 49.911,136.544 45.903,132.326 46.184 L 130.538 46.303 130.062 44.718 C 129.800 43.847,129.271 41.470,128.885 39.437 C 127.913 34.311,126.045 32.698,122.938 34.305 C 120.312 35.662,120.810 40.012,124.656 49.306 C 125.709 51.851,125.731 52.010,125.322 54.190 C 124.781 57.078,125.103 63.216,126.016 67.430 C 126.393 69.173,126.802 71.074,126.924 71.655 C 127.253 73.226,125.509 69.056,123.913 64.456 C 122.494 60.366,121.479 55.625,121.479 53.088 C 121.479 49.990,119.385 47.893,116.780 48.382 C 112.191 49.243,112.915 55.989,119.176 70.721 C 120.830 74.613,122.183 77.891,122.183 78.007 C 122.183 78.123,120.420 75.869,118.266 72.999 C 104.424 54.562,90.834 43.177,77.589 38.921 L 74.720 37.999 70.456 32.745 C 65.616 26.781,64.640 26.130,62.247 27.265 C 59.339 28.645,59.432 31.303,62.500 34.481 C 65.188 37.266,65.158 37.174,63.468 37.450 C 59.524 38.095,54.393 42.113,52.277 46.214 C 51.702 47.327,51.125 48.198,50.994 48.150 C 50.614 48.011,43.192 38.299,41.357 35.539 C 38.918 31.870,37.208 31.012,35.007 32.354 C 31.532 34.473,32.221 36.005,41.519 46.824 L 49.230 55.796 49.042 60.380 C 47.611 95.273,90.256 151.676,131.703 169.709 C 133.852 170.644,135.684 171.482,135.773 171.571 C 135.862 171.660,134.228 171.840,132.140 171.970 C 95.458 174.252,67.904 183.047,65.127 193.360 C 63.823 198.204,69.333 200.356,71.598 195.888 C 76.543 186.129,100.928 178.604,134.677 176.420 C 144.697 175.772,182.974 176.148,189.303 176.957 L 190.753 177.142 192.702 181.265 C 193.774 183.532,195.942 188.302,197.521 191.865 C 201.829 201.589,202.033 201.881,204.225 201.451 C 206.948 200.917,206.834 199.220,203.647 192.865 C 202.168 189.914,199.869 185.219,198.540 182.430 L 196.123 177.360 201.495 177.603 C 210.767 178.022,210.505 177.956,211.506 180.144 C 213.638 184.799,218.760 184.929,218.819 180.328 C 218.843 178.527,216.404 178.513,240.071 180.448 C 273.433 183.177,277.464 183.375,305.764 183.686 C 330.502 183.958,329.930 184.050,329.930 179.788 C 329.930 176.816,328.020 176.163,320.977 176.724 C 303.481 178.118,280.659 178.130,259.507 176.755 C 248.870 176.064,220.568 173.942,218.499 173.681 L 216.399 173.415 212.121 163.650 C 207.868 153.940,207.842 153.865,207.595 150.446 C 206.701 138.108,203.079 126.083,195.584 110.563 L 192.267 103.697 191.569 97.359 C 189.244 76.248,189.916 64.250,193.646 60.299 C 198.085 55.597,210.203 88.508,214.227 116.197 C 216.746 133.531,217.657 156.615,216.195 166.040 C 215.663 169.469,216.150 170.849,218.194 171.703 C 220.470 172.654,221.721 171.914,224.361 168.058 C 227.142 163.994,233.087 162.768,245.312 163.738 L 251.132 164.199 253.119 165.841 C 265.310 175.914,277.286 176.475,281.781 167.182 C 285.102 160.314,285.324 136.726,282.168 125.880 C 281.637 124.055,282.832 126.342,285.019 131.338 C 292.957 149.465,295.629 153.014,299.454 150.507 C 302.223 148.693,302.058 144.638,298.404 124.779 C 297.316 118.862,296.489 113.957,296.567 113.879 C 296.646 113.800,297.559 115.280,298.597 117.168 C 303.050 125.263,304.986 127.908,307.190 128.909 C 310.947 130.616,313.097 128.759,314.954 122.204 C 317.132 114.519,319.596 113.115,332.339 112.305 C 338.917 111.887,340.141 111.323,340.141 108.712 C 340.141 105.786,338.409 105.105,331.751 105.413 C 317.924 106.053,312.048 109.074,309.242 116.989 C 308.710 118.489,308.165 119.717,308.032 119.717 C 307.707 119.719,304.747 114.903,299.403 105.677 C 293.807 96.016,292.491 94.729,289.678 96.168 C 287.094 97.489,287.103 99.221,289.761 111.796 C 295.053 136.837,295.389 139.090,293.256 135.211 C 286.877 123.611,276.380 98.972,273.977 89.960 C 267.798 66.786,265.348 60.563,262.402 60.563 C 257.094 60.563,258.164 66.796,267.372 89.516 C 275.561 109.723,280.871 140.523,278.837 156.018 C 278.388 159.434,278.196 159.763,277.062 159.052 C 276.416 158.648,274.280 158.482,267.430 158.305 C 251.512 157.894,252.955 158.400,248.291 151.585 C 231.454 126.978,221.661 81.643,228.693 60.859 C 230.241 56.282,229.835 55.738,234.135 68.146 C 237.890 78.983,238.212 79.577,240.330 79.577 C 241.630 79.577,242.958 78.275,242.958 76.999 C 242.958 76.602,241.373 71.876,239.437 66.497 C 237.500 61.119,235.915 56.629,235.915 56.521 C 235.915 55.889,242.420 60.038,243.752 61.520 C 244.183 62.000,244.531 63.476,244.902 66.403 C 245.194 68.711,245.582 70.947,245.764 71.372 C 246.673 73.498,249.505 73.718,250.699 71.755 L 251.346 70.690 252.225 72.082 C 258.434 81.919,261.222 93.054,259.684 101.875 C 258.202 110.374,255.504 113.378,249.032 113.737 C 244.683 113.979,243.310 114.889,243.310 117.533 C 243.310 123.818,256.100 122.574,261.569 115.757 C 271.065 103.920,266.862 79.771,252.105 61.383 L 250.078 58.858 249.814 52.580 C 249.646 48.591,249.708 43.507,249.984 38.633 C 250.471 30.025,250.400 29.651,248.091 28.686 C 243.223 26.652,242.377 30.553,243.530 49.723 L 243.736 53.143 241.060 51.618 C 239.588 50.779,237.630 49.897,236.709 49.658 C 233.032 48.705,233.468 49.250,231.605 43.285 C 228.330 32.797,225.951 22.940,224.644 14.437 C 223.693 8.248,220.967 6.092,217.931 9.128 M72.652 45.863 C 76.218 49.659,87.806 65.575,97.451 79.925 C 101.257 85.587,102.208 86.432,103.785 85.551 C 105.458 84.616,105.826 83.331,104.918 81.586 C 103.837 79.508,90.634 59.693,86.125 53.382 C 84.064 50.498,82.431 48.085,82.496 48.020 C 83.148 47.368,92.522 54.094,98.415 59.442 C 114.136 73.708,134.660 105.575,139.844 123.768 C 141.382 129.165,143.997 130.804,146.913 128.197 C 148.662 126.634,148.491 124.961,145.957 118.838 C 143.277 112.364,141.196 107.081,141.202 106.766 C 141.205 106.628,142.648 109.208,144.409 112.500 C 146.170 115.792,148.136 119.384,148.778 120.482 C 149.420 121.580,150.190 123.437,150.490 124.608 C 150.790 125.779,152.228 129.080,153.686 131.943 C 161.293 146.886,161.960 165.314,155.006 168.390 C 149.720 170.729,131.753 164.876,118.264 156.422 C 93.352 140.808,67.142 108.394,58.484 82.493 C 56.198 75.655,53.934 62.372,55.187 63.146 C 55.611 63.408,63.560 73.179,70.172 81.566 C 72.637 84.692,74.903 87.347,75.208 87.463 C 77.521 88.351,79.758 86.668,79.319 84.371 C 79.237 83.942,74.033 77.186,67.754 69.359 C 61.475 61.531,56.338 54.852,56.338 54.516 C 56.338 49.105,61.947 44.014,67.908 44.014 L 70.915 44.014 72.652 45.863 M137.676 53.814 C 143.499 56.419,151.351 61.825,156.772 66.962 C 159.459 69.508,159.532 69.624,162.263 75.704 C 163.785 79.093,169.693 91.136,175.392 102.465 C 192.846 137.163,201.598 156.442,201.255 159.439 C 200.878 162.743,200.322 165.218,199.552 167.028 L 198.823 168.740 197.173 168.581 C 192.532 168.136,190.625 166.443,187.312 159.830 C 186.302 157.813,181.554 148.715,176.762 139.613 C 154.792 97.883,133.099 54.743,133.099 52.782 C 133.099 52.136,134.765 52.512,137.676 53.814 M132.611 66.285 C 133.509 68.077,136.736 74.217,139.783 79.930 C 142.830 85.643,148.852 97.051,153.166 105.282 C 157.480 113.512,165.324 128.327,170.596 138.204 C 175.869 148.081,180.461 156.717,180.802 157.394 L 181.421 158.627 180.113 157.394 C 178.549 155.921,172.900 149.523,170.846 146.898 C 169.593 145.296,169.393 144.810,169.450 143.499 C 169.510 142.105,169.326 141.738,167.385 139.382 C 162.706 133.704,161.016 131.114,160.020 128.096 C 158.214 122.625,156.865 120.501,154.765 119.827 C 150.904 118.587,134.020 80.630,131.517 67.563 C 131.206 65.940,130.877 64.256,130.786 63.820 C 130.478 62.348,130.972 63.015,132.611 66.285 M176.684 88.908 C 180.169 93.595,184.968 100.976,186.544 104.073 C 186.945 104.861,187.603 107.238,188.006 109.355 C 188.409 111.472,189.197 115.185,189.757 117.606 C 190.967 122.835,190.949 122.950,189.429 119.635 C 188.785 118.228,184.940 110.264,180.885 101.937 C 170.176 79.943,170.298 80.321,176.684 88.908 M168.681 154.303 C 172.540 159.082,180.005 166.654,183.607 169.444 L 186.756 171.883 174.804 171.653 C 160.576 171.380,161.773 171.620,163.029 169.298 C 164.952 165.744,165.630 162.417,165.650 156.428 C 165.661 153.475,165.757 151.059,165.864 151.058 C 165.971 151.057,167.238 152.517,168.681 154.303 M272.103 165.493 C 275.494 165.493,275.752 165.540,275.307 166.076 C 273.611 168.121,268.913 168.043,264.437 165.896 L 262.852 165.136 265.634 165.315 C 267.164 165.413,270.075 165.493,272.103 165.493 M208.211 172.685 C 208.265 172.959,204.937 173.005,204.660 172.734 C 204.609 172.684,204.991 171.718,205.508 170.588 L 206.448 168.534 207.298 170.447 C 207.765 171.498,208.176 172.506,208.211 172.685 M54.267 182.616 C 52.714 183.704,52.448 185.043,52.865 189.662 C 53.293 194.396,53.040 202.943,52.311 208.377 C 51.322 215.750,54.205 218.063,59.988 214.534 C 69.208 208.907,88.458 208.015,111.319 212.157 C 117.208 213.224,117.090 213.224,118.150 212.164 C 120.590 209.723,118.866 208.130,112.481 206.927 C 91.663 203.004,74.939 202.634,62.625 205.823 C 61.532 206.106,60.563 206.338,60.471 206.338 C 60.379 206.338,60.382 202.416,60.478 197.623 C 60.691 187.045,60.393 184.436,58.811 183.011 C 57.554 181.879,55.566 181.706,54.267 182.616 " stroke="none" fill="#000000" fill-rule="evenodd"></path></g></svg>