<svg id="svg" xmlns="http://www.w3.org/2000/svg" xmlns:xlink="http://www.w3.org/1999/xlink" width="400" height="300"
     viewBox="0, 0, 400,300">
    <g id="svgg">
        <path id="path0"
              d="M20.362 34.196 C 19.020 34.583,17.805 36.523,18.086 37.828 C 18.416 39.355,21.996 43.121,29.227 49.547 C 30.315 50.514,31.286 51.398,31.385 51.511 C 31.611 51.769,36.254 55.900,37.671 57.104 C 38.253 57.599,39.060 58.298,39.463 58.657 C 40.210 59.321,42.880 61.629,47.031 65.198 C 48.297 66.286,49.422 67.257,49.533 67.356 C 49.643 67.455,50.218 67.939,50.811 68.431 C 51.403 68.924,51.929 69.369,51.978 69.421 C 52.028 69.473,52.675 70.000,53.417 70.594 C 54.159 71.187,54.807 71.717,54.856 71.771 C 54.934 71.858,61.685 77.366,62.411 77.935 C 62.560 78.052,63.486 78.795,64.470 79.586 C 65.453 80.378,66.479 81.187,66.750 81.385 C 67.020 81.583,68.642 82.878,70.355 84.263 C 73.448 86.765,75.110 88.070,76.077 88.759 C 76.355 88.957,77.781 90.049,79.246 91.187 C 83.070 94.157,88.057 97.968,90.378 99.695 C 91.405 100.459,91.267 100.356,92.806 101.524 C 94.799 103.038,104.168 110.028,105.306 110.851 C 105.899 111.280,107.478 112.436,108.813 113.419 C 113.575 116.926,115.038 117.992,116.496 119.016 C 117.309 119.587,119.566 121.187,121.513 122.572 C 129.819 128.482,141.689 136.391,149.159 140.991 C 149.735 141.346,150.464 141.803,150.778 142.005 C 151.092 142.208,152.806 143.252,154.586 144.324 C 156.367 145.397,158.107 146.452,158.453 146.668 C 158.799 146.885,159.876 147.532,160.845 148.106 C 163.014 149.392,163.770 150.065,166.672 153.296 C 167.932 154.698,169.375 156.290,169.880 156.835 C 170.384 157.379,171.399 158.473,172.134 159.267 C 172.870 160.060,175.495 163.006,177.968 165.814 C 180.441 168.621,182.547 171.007,182.648 171.115 C 183.023 171.519,186.818 175.978,187.860 177.240 C 189.383 179.085,190.859 180.829,190.988 180.935 C 191.241 181.144,194.073 184.564,197.465 188.759 C 199.465 191.232,201.238 193.418,201.405 193.616 C 201.572 193.814,201.990 194.340,202.333 194.785 C 202.677 195.230,203.005 195.634,203.061 195.683 C 203.117 195.733,203.887 196.704,204.772 197.842 C 205.656 198.979,206.425 199.951,206.480 200.000 C 206.569 200.081,209.630 204.042,210.522 205.230 C 210.719 205.494,211.246 206.176,211.691 206.745 C 212.136 207.315,212.662 208.003,212.860 208.275 C 213.058 208.546,214.474 210.438,216.007 212.478 C 217.540 214.519,219.564 217.245,220.504 218.537 C 221.443 219.829,222.579 221.386,223.026 221.999 C 225.077 224.802,226.079 226.403,226.079 226.875 C 226.079 227.413,225.928 227.588,221.659 232.004 C 220.266 233.444,218.283 235.508,217.252 236.591 C 212.762 241.305,204.093 249.977,200.453 253.393 C 198.279 255.434,196.207 257.388,195.849 257.734 C 195.492 258.080,194.607 258.889,193.884 259.532 C 193.161 260.175,192.481 260.783,192.373 260.884 C 192.265 260.984,191.529 261.624,190.737 262.307 C 189.946 262.989,188.692 264.089,187.950 264.750 C 187.208 265.411,185.832 266.629,184.892 267.456 C 183.952 268.283,182.576 269.541,181.835 270.252 C 181.093 270.963,180.223 271.763,179.901 272.029 C 179.262 272.559,179.136 273.022,179.631 273.020 C 179.991 273.019,180.114 272.956,182.891 271.337 C 184.017 270.681,184.964 270.144,184.997 270.144 C 185.057 270.144,189.609 267.413,190.108 267.077 C 190.256 266.978,190.519 266.848,190.692 266.790 C 190.866 266.732,191.007 266.628,191.007 266.559 C 191.007 266.490,191.351 266.242,191.772 266.008 C 192.478 265.616,193.593 264.899,196.281 263.108 C 196.857 262.724,197.389 262.410,197.464 262.410 C 197.538 262.410,197.789 262.208,198.022 261.960 C 198.254 261.713,198.511 261.511,198.593 261.511 C 198.885 261.511,207.193 255.686,209.880 253.597 C 210.453 253.152,211.509 252.343,212.228 251.799 C 214.437 250.126,219.979 245.687,221.416 244.438 C 222.165 243.788,223.217 242.891,223.754 242.446 C 224.291 242.001,225.133 241.272,225.625 240.827 C 226.117 240.382,226.609 239.937,226.719 239.838 C 226.828 239.739,227.680 238.962,228.612 238.111 C 231.894 235.112,232.000 235.052,232.592 235.867 C 233.141 236.622,236.519 241.923,238.218 244.694 C 239.127 246.178,240.423 248.282,241.096 249.371 C 241.770 250.459,242.592 251.822,242.923 252.400 C 243.254 252.978,243.687 253.679,243.885 253.957 C 244.083 254.235,244.245 254.509,244.245 254.566 C 244.245 254.623,244.568 255.199,244.964 255.845 C 245.360 256.492,245.683 257.056,245.683 257.100 C 245.683 257.143,245.936 257.607,246.246 258.131 C 246.908 259.252,249.756 264.841,250.259 266.008 C 252.378 270.919,255.907 267.721,255.050 261.667 C 254.116 255.069,248.727 243.057,241.253 230.919 C 239.254 227.672,238.991 228.376,244.110 223.290 C 248.589 218.839,255.584 211.545,257.475 209.353 C 257.858 208.907,258.539 208.138,258.987 207.642 C 259.435 207.147,260.166 206.303,260.612 205.767 C 261.057 205.231,262.156 203.936,263.055 202.891 C 264.616 201.075,266.829 198.358,267.483 197.456 C 267.652 197.223,267.915 196.871,268.068 196.673 C 269.364 194.993,271.942 191.263,271.942 191.069 C 271.942 191.031,272.149 190.673,272.401 190.273 C 276.519 183.750,276.040 178.280,271.042 174.773 C 269.199 173.480,264.026 171.692,258.723 170.516 C 258.228 170.406,257.169 170.158,256.369 169.964 C 255.570 169.770,254.598 169.563,254.211 169.504 C 252.071 169.177,238.999 165.807,235.432 164.663 C 234.987 164.521,233.530 164.080,232.194 163.684 C 229.781 162.969,222.509 160.556,221.133 160.014 C 220.737 159.858,218.997 159.208,217.266 158.568 C 214.542 157.562,208.938 155.337,207.284 154.606 C 206.302 154.171,205.868 153.980,203.208 152.812 C 193.922 148.733,179.264 141.171,169.827 135.591 C 169.009 135.108,168.306 134.712,168.264 134.712 C 168.203 134.712,164.780 132.659,161.331 130.553 C 161.084 130.402,160.355 129.969,159.712 129.591 C 157.931 128.543,155.388 126.953,154.604 126.397 C 154.219 126.123,153.833 125.899,153.748 125.899 C 153.663 125.899,153.190 125.616,152.698 125.270 C 152.205 124.924,151.763 124.640,151.714 124.640 C 151.500 124.640,143.675 119.464,142.536 118.569 C 141.879 118.053,139.053 115.657,138.666 115.288 C 137.599 114.271,129.562 107.171,127.518 105.439 C 127.271 105.229,126.882 104.898,126.655 104.703 C 126.428 104.509,125.904 104.079,125.492 103.748 C 125.080 103.418,124.457 102.897,124.107 102.590 C 123.483 102.044,116.896 96.573,116.367 96.162 C 116.219 96.047,114.802 94.924,113.219 93.667 C 109.608 90.799,103.254 85.819,102.598 85.342 C 102.325 85.144,100.035 83.413,97.508 81.496 C 94.981 79.578,91.736 77.155,90.296 76.111 C 88.857 75.066,87.113 73.795,86.421 73.287 C 84.100 71.582,79.856 68.590,74.640 64.983 C 67.053 59.735,56.040 52.842,49.567 49.289 C 46.896 47.823,46.421 47.565,45.324 46.979 C 44.681 46.636,42.212 45.386,39.838 44.203 C 35.025 41.803,34.452 41.470,32.014 39.649 C 30.331 38.392,26.734 35.971,26.549 35.971 C 26.497 35.971,26.054 35.735,25.564 35.446 C 23.569 34.270,21.679 33.816,20.362 34.196 M191.296 164.323 C 194.014 165.620,195.939 166.486,200.090 168.279 C 201.574 168.919,203.031 169.554,203.327 169.689 C 206.451 171.113,215.735 174.612,220.863 176.298 C 225.701 177.889,229.145 178.995,230.755 179.476 C 231.794 179.786,233.008 180.153,233.453 180.291 C 233.898 180.429,235.112 180.761,236.151 181.029 C 237.190 181.296,238.566 181.665,239.209 181.849 C 239.852 182.032,241.470 182.462,242.806 182.804 C 244.141 183.147,245.841 183.588,246.583 183.785 C 247.325 183.982,249.227 184.436,250.809 184.793 C 252.392 185.151,253.849 185.483,254.047 185.531 C 254.245 185.579,255.337 185.780,256.475 185.978 C 259.450 186.496,259.492 186.507,259.603 186.796 C 259.800 187.309,257.946 189.978,252.120 197.572 C 251.740 198.067,251.278 198.674,251.092 198.921 C 250.099 200.244,245.397 206.084,244.155 207.538 C 240.336 212.008,239.801 212.618,236.461 216.322 C 233.876 219.187,233.646 219.309,232.917 218.209 C 232.312 217.296,227.493 210.612,227.116 210.162 C 226.950 209.964,225.816 208.467,224.596 206.835 C 221.155 202.231,220.946 201.964,214.301 193.705 C 211.990 190.834,208.916 187.171,206.667 184.611 C 206.314 184.209,205.609 183.399,205.101 182.812 C 200.964 178.034,197.028 173.581,195.589 172.049 C 195.487 171.941,194.603 170.962,193.625 169.874 C 192.647 168.786,191.758 167.815,191.651 167.716 C 191.544 167.617,190.668 166.677,189.703 165.626 C 187.028 162.713,187.358 162.443,191.296 164.323 M320.144 193.341 C 318.542 193.680,317.600 193.946,316.996 194.227 C 316.799 194.320,316.187 194.599,315.636 194.849 C 310.532 197.162,304.370 205.564,302.691 212.500 C 302.619 212.797,302.383 213.687,302.166 214.478 C 301.457 217.070,301.170 218.984,300.904 222.898 C 300.703 225.846,300.958 230.620,301.430 232.734 C 302.562 237.812,302.913 239.223,303.243 240.018 C 303.325 240.216,303.554 240.863,303.753 241.457 C 308.218 254.777,319.772 263.717,330.012 261.774 C 337.183 260.414,342.437 255.624,346.277 246.942 C 349.199 240.336,350.170 230.402,348.703 222.122 C 348.502 220.985,348.272 219.690,348.193 219.245 C 347.219 213.763,343.869 206.582,340.118 201.935 C 339.108 200.683,336.257 197.845,336.003 197.839 C 335.936 197.837,335.685 197.628,335.444 197.375 C 332.505 194.278,325.028 192.306,320.144 193.341 M282.914 201.550 C 279.983 202.654,278.640 204.924,278.831 208.452 C 278.947 210.602,279.772 217.622,280.205 220.144 C 280.947 224.473,281.166 225.660,281.498 227.158 C 281.706 228.098,281.947 229.191,282.032 229.586 C 282.435 231.447,282.742 232.697,283.514 235.612 C 285.026 241.323,285.446 242.879,285.896 244.424 C 286.140 245.265,286.467 246.398,286.622 246.942 C 287.335 249.444,289.510 256.153,290.120 257.734 C 290.330 258.278,290.700 259.288,290.943 259.979 C 291.704 262.147,292.082 262.770,292.636 262.770 C 293.246 262.770,293.621 261.990,293.451 261.080 C 293.387 260.741,293.260 258.696,293.168 256.536 C 293.076 254.375,292.922 251.556,292.826 250.270 C 292.729 248.984,292.562 246.111,292.455 243.885 C 292.225 239.144,291.960 234.767,291.721 231.745 C 291.627 230.558,291.506 228.979,291.451 228.237 C 291.397 227.496,291.318 226.725,291.276 226.525 C 291.188 226.102,291.071 224.964,290.832 222.212 C 290.737 221.124,290.452 218.210,290.198 215.737 C 289.944 213.264,289.659 210.432,289.563 209.442 C 289.123 204.899,288.246 203.036,286.047 201.972 C 285.194 201.559,283.497 201.330,282.914 201.550 M326.888 202.614 C 331.537 204.153,335.194 207.780,338.248 213.880 C 338.677 214.737,339.029 215.487,339.029 215.545 C 339.029 215.604,339.181 215.994,339.366 216.414 C 343.276 225.243,343.243 238.581,339.291 246.864 C 333.755 258.468,323.076 259.146,315.831 248.353 C 309.795 239.359,307.921 226.076,311.040 214.388 C 312.695 208.187,317.288 203.245,322.302 202.271 C 323.156 202.105,325.992 202.317,326.888 202.614 M267.755 220.582 C 266.555 220.927,265.128 222.193,264.505 223.466 C 263.446 225.629,263.501 227.444,264.819 233.723 C 264.965 234.415,265.251 235.791,265.457 236.781 C 265.662 237.770,265.908 238.903,266.004 239.299 C 266.100 239.694,266.310 240.585,266.471 241.277 C 267.441 245.454,270.249 253.862,272.027 257.914 C 274.408 263.342,275.570 264.863,276.276 263.477 C 276.525 262.989,276.884 252.774,276.870 246.583 C 276.855 239.650,276.627 235.899,275.894 230.486 C 275.801 229.793,275.678 228.781,275.622 228.237 C 275.567 227.693,275.450 226.965,275.362 226.619 C 275.275 226.272,275.165 225.730,275.119 225.413 C 274.621 222.026,270.999 219.649,267.755 220.582 "
              stroke="none" fill="#ffffff" fill-rule="evenodd"></path>
    </g>
</svg>
